<svg width="32" height="32" viewBox="0 0 32 32" fill="none" xmlns="http://www.w3.org/2000/svg">
<path d="M25.3333 14.6666H6.66667C5.19391 14.6666 4 15.8605 4 17.3333V26.6666C4 28.1394 5.19391 29.3333 6.66667 29.3333H25.3333C26.8061 29.3333 28 28.1394 28 26.6666V17.3333C28 15.8605 26.8061 14.6666 25.3333 14.6666Z" stroke="white" stroke-width="2.66667" stroke-linecap="round" stroke-linejoin="round"/>
<path d="M9.3335 14.6666V9.33329C9.3335 7.56518 10.0359 5.86949 11.2861 4.61925C12.5364 3.369 14.2321 2.66663 16.0002 2.66663C17.7683 2.66663 19.464 3.369 20.7142 4.61925C21.9645 5.86949 22.6668 7.56518 22.6668 9.33329V14.6666" stroke="white" stroke-width="2.66667" stroke-linecap="round" stroke-linejoin="round"/>
</svg>
