<svg width="35" height="40" viewBox="0 0 35 40" fill="none" xmlns="http://www.w3.org/2000/svg">
<g clip-path="url(#clip0_2383_1449)">
<path d="M11.7442 18.0913V16.8776C11.2921 16.818 10.8367 16.7872 10.3806 16.7853C4.80318 16.7853 0.264648 21.0162 0.264648 26.2167C0.264648 29.4062 1.97511 32.2307 4.58343 33.9377C2.8369 32.1964 1.86523 29.9012 1.86687 27.517C1.86687 22.3909 6.27585 18.2106 11.7442 18.0913Z" fill="#00F2EA"/>
<path d="M12.0122 31.4874C14.3704 31.4874 16.2933 29.6309 16.381 27.3161L16.3892 6.65801H20.2021C20.1205 6.22685 20.079 5.7891 20.0783 5.35034L14.8714 5.35034L14.8624 26.0093C14.7755 28.3224 12.851 30.1789 10.4936 30.1789C9.78637 30.179 9.08968 30.008 8.46338 29.6807C8.86923 30.2401 9.40253 30.6955 10.0195 31.0096C10.6364 31.3237 11.3194 31.4874 12.0122 31.4874ZM27.3227 13.6701V12.5217C25.9229 12.5233 24.5528 12.1201 23.3786 11.3611C24.4092 12.5343 25.7922 13.3443 27.3227 13.6701Z" fill="#00F2EA"/>
<path d="M23.2238 11.6543C22.0788 10.3658 21.4465 8.70463 21.4461 6.98389H20.0546C20.2367 7.93597 20.6116 8.84111 21.1565 9.64408C21.7014 10.4471 22.4048 11.131 23.2238 11.6543ZM10.3707 21.7391C7.96002 21.7424 6.00685 23.6675 6.00439 26.0435C6.00691 26.8312 6.22647 27.6031 6.63913 28.275C7.05179 28.9468 7.64172 29.493 8.34459 29.8538C7.80825 29.126 7.51873 28.2468 7.51806 27.3439C7.52052 24.967 9.47369 23.041 11.8844 23.0386C12.3354 23.0386 12.7659 23.1121 13.1734 23.2379V18.0105C12.7463 17.9507 12.3157 17.9196 11.8844 17.9174C11.809 17.9174 11.7343 17.9223 11.6597 17.9231V21.9384C11.2426 21.8076 10.808 21.7404 10.3707 21.7391Z" fill="#FF004F"/>
<path d="M26.6289 14.335V18.3241C24.0387 18.328 21.5121 17.5252 19.4025 16.0282V26.456C19.4025 31.6647 15.1141 35.9021 9.8433 35.9021C7.80567 35.9021 5.91646 35.2667 4.36426 34.1893C5.26034 35.1423 6.3434 35.9016 7.54628 36.4204C8.74916 36.9391 10.0462 37.2061 11.357 37.2049C16.6286 37.2049 20.917 32.9674 20.917 27.7596V17.3309C23.0267 18.8277 25.5533 19.6302 28.1434 19.6261V14.4942C27.6344 14.4941 27.1268 14.4407 26.6289 14.335Z" fill="#FF004F"/>
<path d="M19.9269 26.113V15.6679C22.0979 17.1712 24.6799 17.9741 27.3239 17.968V13.9739C25.7692 13.6534 24.358 12.8464 23.2962 11.6706C21.5972 10.6031 20.4246 8.90986 20.0524 6.98389H16.16L16.1518 27.5791C16.0616 29.8857 14.0977 31.7365 11.6911 31.7365C10.2529 31.7349 8.90487 31.0651 8.06686 29.9363C6.59584 29.1906 5.67337 27.718 5.67255 26.1122C5.67501 23.7271 7.67328 21.7955 10.1414 21.7922C10.6006 21.7922 11.0417 21.8657 11.4599 21.9923V17.9631C6.17027 18.0832 1.90479 22.2757 1.90479 27.4166C1.90479 29.9037 2.90433 32.167 4.53279 33.8569C6.18642 34.9778 8.14122 35.5753 10.1414 35.5713C15.5368 35.5713 19.9269 31.3281 19.9269 26.113Z" fill="white"/>
</g>
<defs>
<clipPath id="clip0_2383_1449">
<rect width="35" height="40" fill="white"/>
</clipPath>
</defs>
</svg>
