<svg width="40" height="28" viewBox="0 0 40 28" fill="none" xmlns="http://www.w3.org/2000/svg">
<g clip-path="url(#clip0_2383_1425)">
<g clip-path="url(#clip1_2383_1425)">
<path d="M39.1637 4.37254C38.7028 2.65052 37.3494 1.29727 35.6273 0.836312C32.5092 2.50339e-07 20 0 20 0C20 0 7.49096 2.50339e-07 4.37274 0.836312C2.65065 1.29727 1.29734 2.65052 0.836354 4.37254C2.50352e-07 7.49059 0 14 0 14C0 14 2.50352e-07 20.5094 0.836354 23.6275C1.29734 25.3495 2.65065 26.7028 4.37274 27.1636C7.49096 28 20 28 20 28C20 28 32.5092 28 35.6273 27.1636C37.3494 26.7028 38.7028 25.3495 39.1637 23.6275C40.0001 20.5094 40.0001 14 40.0001 14C40.0001 14 39.9968 7.49059 39.1637 4.37254Z" fill="#FF0000"/>
<path d="M15.9963 19.9996L26.3882 14.0006L15.9963 8.00146V19.9996Z" fill="white"/>
</g>
</g>
<defs>
<clipPath id="clip0_2383_1425">
<rect width="40" height="28" fill="white"/>
</clipPath>
<clipPath id="clip1_2383_1425">
<rect width="40" height="28" fill="white"/>
</clipPath>
</defs>
</svg>
